<svg width="18" height="18" viewBox="0 0 18 18" fill="none" xmlns="http://www.w3.org/2000/svg">
<path d="M8.04894 3.92705C8.3483 3.00574 9.6517 3.00574 9.95106 3.92705L10.5716 5.83688C10.7055 6.2489 11.0894 6.52786 11.5227 6.52786H13.5308C14.4995 6.52786 14.9023 7.76748 14.1186 8.33688L12.494 9.51722C12.1435 9.77187 11.9968 10.2232 12.1307 10.6353L12.7512 12.5451C13.0506 13.4664 11.9961 14.2325 11.2124 13.6631L9.58778 12.4828C9.2373 12.2281 8.7627 12.2281 8.41221 12.4828L6.78761 13.6631C6.0039 14.2325 4.94942 13.4664 5.24878 12.5451L5.86932 10.6353C6.00319 10.2232 5.85653 9.77186 5.50604 9.51722L3.88144 8.33688C3.09773 7.76748 3.50051 6.52786 4.46923 6.52786H6.47735C6.91057 6.52786 7.29453 6.2489 7.4284 5.83688L8.04894 3.92705Z" fill="#698EFF"/>
</svg>
